# xmcd CD database file
#
# Track frame offsets:
#	150
#	23124
#	46599
#	66288
#	84062
#	102634
#	126526
#	146281
#	162001
#	186988
#	211223
#	230813
#	255942
#
# Disc length: 3708 seconds
#
# Revision: 0
# Processed by: cddbd v1.5PL3 Copyright (c) Steve Scherf et al.
# Submitted via: CDex 1.51
#
DISCID=ab0e7a0d
DTITLE=Boogie down Production - Criminal Minded
DYEAR=1987
DGENRE=Rap
TTITLE0=Poetry
TTITLE1=South Bronx
TTITLE2=9mm Goes Bang
TTITLE3=Word from Our Sponser
TTITLE4=Elementary
TTITLE5=Dope Beat
TTITLE6=Remix For P is Free
TTITLE7=the bridge is over
TTITLE8=super-hoe
TTITLE9=criminal minded
TTITLE10=scott la rock mega mix
TTITLE11=scott la rock mega mix2
TTITLE12=scott la rock mega mix3
EXTD=YEAR: 1987
EXTT0=
EXTT1=
EXTT2=
EXTT3=
EXTT4=
EXTT5=
EXTT6=
EXTT7=
EXTT8=
EXTT9=
EXTT10=
EXTT11=
EXTT12=
PLAYORDER=
